PathFileType  4	(X/Y/Z) C:\Users\antoi\Documents\MyRepositories\mobilecap\ResultsAnalysis
DataRate	CameraRate	NumFrames	NumMarkers	Units	OrigDataRate	OrigDataStartFrame	OrigNumFrames
100.0	100.0	6	51	mm	100.0	32	249
Frame#	Time	r_knee			r_shank_antsup			r_ankle			r_calc			r_5meta			r_toe			L_knee			L_shank_antsup			L_ankle			L_calc			L_5meta			L_toe			r_sh2			r_sh3			r_sh4			L_sh2			L_sh3			r_thigh1			r_thigh2			r_thigh3			r_thigh4			r_thigh5			L_thigh1			L_thigh2			L_thigh3			L_thigh4			r.ASIS			r.PSIS			L.ASIS			L.PSIS			C7			R_Shoulder			L_Shoulder			R_Sternum			L_Sternum			R_humerus			R_elbow_med			R_elbow_lat			R_forearm			R_wrist_radius			R_wrist_ulna			L_humerus			L_elbow_med			L_elbow_lat			L_forearm			L_wrist_radius			L_wrist_ulna			R_HJC			L_HJC			R_HJC_reg			L_HJC_reg			
		X1	Y1	Z1	X2	Y2	Z2	X3	Y3	Z3	X4	Y4	Z4	X5	Y5	Z5	X6	Y6	Z6	X7	Y7	Z7	X8	Y8	Z8	X9	Y9	Z9	X10	Y10	Z10	X11	Y11	Z11	X12	Y12	Z12	X13	Y13	Z13	X14	Y14	Z14	X15	Y15	Z15	X16	Y16	Z16	X17	Y17	Z17	X18	Y18	Z18	X19	Y19	Z19	X20	Y20	Z20	X21	Y21	Z21	X22	Y22	Z22	X23	Y23	Z23	X24	Y24	Z24	X25	Y25	Z25	X26	Y26	Z26	X27	Y27	Z27	X28	Y28	Z28	X29	Y29	Z29	X30	Y30	Z30	X31	Y31	Z31	X32	Y32	Z32	X33	Y33	Z33	X34	Y34	Z34	X35	Y35	Z35	X36	Y36	Z36	X37	Y37	Z37	X38	Y38	Z38	X39	Y39	Z39	X40	Y40	Z40	X41	Y41	Z41	X42	Y42	Z42	X43	Y43	Z43	X44	Y44	Z44	X45	Y45	Z45	X46	Y46	Z46	X47	Y47	Z47	X48	Y48	Z48	X49	Y49	Z49	X50	Y50	Z50	X51	Y51	Z51	

32	0.31000000	-1105.93419	767.60963	-447.82375	-1103.43464	694.15394	-425.89908	-1185.79584	399.35426	-458.84789	-1254.57799	360.84905	-493.26574	-1081.89822	356.81630	-434.85000	-1042.33912	379.82966	-491.58729	-1112.02266	767.05471	-714.59204	-1091.40788	698.20300	-717.24334	-1178.18926	401.36437	-709.37598	-1248.30356	363.19877	-664.08200	-1084.05983	354.28771	-733.05428	-1037.63294	379.04733	-676.69635	-1125.82672	582.82540	-421.53490	-1177.26246	706.67311	-431.71218	-1206.63548	594.62764	-429.67611	-1175.52450	720.30730	-742.43819	-1191.09462	598.26299	-745.20969	-1040.00010	1079.35045	-451.95774	-1031.05516	966.55021	-451.16954	-1072.53026	940.27677	-404.05039	-1128.38337	1072.78936	-379.32512	-1126.46371	955.69378	-395.18056	-1052.48896	1051.97931	-733.99214	-1047.52298	913.66779	-722.63313	-1166.36639	1046.29530	-763.15267	-1153.05832	905.72373	-746.08220	-1050.61996	1223.30091	-450.15053	-1233.87792	1254.80248	-518.65145	-1053.30196	1215.35769	-707.52102	-1238.46815	1249.23925	-628.70815	-1129.70606	1712.64372	-579.17089	-1072.00648	1652.11848	-427.66220	-1066.48600	1658.17495	-744.68925	-1023.77786	1615.90024	-565.40367	-1023.06676	1615.33334	-605.78719	-1085.36609	1418.24680	-338.19119	-1147.15122	1315.88179	-376.94386	-1117.13871	1338.24324	-312.90107	-1048.42601	1234.27559	-307.45347	-1006.75082	1121.87551	-312.06250	-1042.62667	1110.18156	-290.49707	-1046.91536	1525.71364	-795.75950	-1155.48477	1327.04880	-784.48839	-1132.72577	1337.54656	-842.74919	-1064.77784	1245.62124	-845.28138	-1029.36614	1125.68189	-825.52025	-1057.92362	1111.54349	-845.90921	-1123.05708	1153.05843	-474.47770	-1123.51279	1149.72637	-674.74183	-1118.63813	1148.10580	-479.97934	-1125.71142	1139.53341	-649.57018	
33	0.32000000	-1104.16991	767.27805	-448.31270	-1101.51390	693.74239	-426.26910	-1185.97558	399.40791	-458.70598	-1254.66513	360.83993	-493.20144	-1081.90383	357.15797	-434.88914	-1042.54206	380.24196	-491.67147	-1108.05750	766.36539	-715.30309	-1087.61642	697.02421	-717.82016	-1178.18568	401.36705	-709.37945	-1248.38476	363.24605	-664.13207	-1084.14677	354.41122	-732.95103	-1037.62477	379.31967	-676.74337	-1124.65109	582.43863	-421.80550	-1175.22812	706.96856	-431.66428	-1205.46976	595.02449	-429.44323	-1171.42243	720.17744	-743.01507	-1188.62181	598.18851	-745.35478	-1040.17958	1079.47707	-452.87328	-1031.65204	966.34165	-451.79298	-1071.86273	939.98804	-404.55759	-1128.47653	1071.99451	-379.62068	-1125.73132	954.99696	-395.37341	-1052.77187	1052.11310	-733.83883	-1045.77860	913.89311	-722.57499	-1166.62118	1044.99255	-763.10292	-1151.21559	904.50420	-746.30469	-1051.65397	1222.26952	-450.54878	-1234.40458	1255.55174	-518.09584	-1054.94138	1214.47641	-707.34868	-1239.37763	1249.94285	-628.07692	-1123.13864	1712.03876	-578.90741	-1065.28661	1651.58952	-427.73359	-1060.60999	1657.36793	-744.47592	-1018.45994	1614.28400	-565.57289	-1017.74779	1613.64131	-605.81476	-1083.79025	1418.65223	-336.32149	-1147.43287	1316.66679	-374.52318	-1116.79071	1339.22555	-310.53313	-1048.16874	1235.23845	-305.65962	-1006.23124	1123.07703	-310.67617	-1041.96614	1111.22220	-288.84641	-1044.05580	1525.00143	-796.82273	-1157.69798	1328.82259	-787.70014	-1134.27356	1339.19589	-845.83357	-1066.39940	1247.06105	-846.93826	-1031.03205	1127.44694	-826.20948	-1059.06596	1113.16146	-847.34223	-1124.56267	1152.71178	-474.32875	-1125.64389	1149.45995	-674.59149	-1120.31912	1148.07323	-480.02937	-1127.96854	1139.44497	-649.21679	
34	0.33000000	-1101.65649	766.84485	-449.15557	-1099.04387	693.31117	-426.64482	-1186.07306	399.51535	-458.55836	-1254.74892	360.86721	-493.20184	-1081.92260	357.41874	-434.90294	-1042.69367	380.63278	-491.74463	-1103.99639	765.57698	-715.82686	-1083.81643	695.88999	-718.77983	-1178.10414	401.48010	-709.72491	-1248.48008	363.27219	-664.14391	-1084.21616	354.60549	-732.99939	-1037.67903	379.58304	-676.83991	-1122.90263	582.25421	-421.75395	-1172.71555	707.24914	-431.82385	-1203.84499	595.44540	-429.24707	-1167.22496	719.99205	-743.75879	-1186.09064	598.11926	-745.66470	-1040.90703	1079.46362	-453.57821	-1032.17288	966.12093	-452.16259	-1070.76735	939.64444	-405.08212	-1128.41482	1071.13420	-379.71611	-1124.71616	954.11683	-395.62690	-1053.13140	1052.17060	-733.46235	-1043.99506	914.10455	-722.58754	-1166.91357	1043.51395	-762.86463	-1149.26215	903.25024	-746.77847	-1053.12143	1220.82912	-450.99016	-1235.06450	1256.29320	-517.59459	-1056.79619	1213.27767	-707.17094	-1240.31023	1250.57547	-627.35291	-1116.18638	1711.19593	-578.91640	-1058.21699	1650.86672	-427.53352	-1054.66208	1656.09085	-744.10395	-1012.88007	1612.31722	-565.86966	-1012.14627	1611.68637	-605.96857	-1082.21952	1418.94231	-334.40636	-1147.71606	1317.62054	-371.90226	-1116.47185	1340.21369	-308.09975	-1047.95686	1236.11812	-303.96823	-1005.73429	1124.12194	-309.39674	-1041.39578	1112.19790	-287.12341	-1041.22183	1524.07023	-798.07592	-1159.74729	1330.58620	-790.67611	-1135.81749	1340.69588	-848.85964	-1068.06858	1248.39886	-848.79374	-1032.73922	1129.02478	-827.06823	-1060.43242	1114.57301	-848.62080	-1126.47578	1152.10478	-474.19060	-1128.10729	1148.98934	-674.45208	-1122.56039	1147.94251	-480.13483	-1130.62620	1139.15121	-648.88373	
35	0.34000000	-1098.63259	766.41440	-449.78341	-1096.01730	692.67874	-427.12122	-1186.05175	399.67133	-458.43685	-1254.80911	360.90985	-493.18738	-1081.94017	357.56714	-434.94299	-1042.75814	380.92403	-491.77044	-1099.83023	764.68759	-716.36101	-1079.95915	694.74840	-719.88328	-1178.00488	401.58447	-710.18755	-1248.54653	363.28683	-664.15252	-1084.27297	354.78663	-733.05642	-1037.75774	379.86386	-677.00574	-1120.73195	581.97720	-421.85554	-1169.68571	707.23635	-432.16568	-1201.70107	595.74747	-429.20124	-1163.06899	719.69416	-744.48245	-1183.26913	598.26647	-746.58766	-1042.03616	1079.10637	-454.24823	-1031.45870	966.12544	-452.86608	-1069.29207	939.20795	-405.72475	-1128.20104	1070.02017	-379.71543	-1123.37822	953.02293	-395.85742	-1053.41930	1052.30190	-732.91059	-1042.21383	914.30417	-722.76591	-1167.18275	1041.89731	-762.59698	-1147.24506	901.91532	-747.34330	-1054.64171	1219.30119	-451.22187	-1235.82381	1257.00534	-517.21039	-1058.61188	1211.94331	-706.82786	-1241.28257	1251.10191	-626.67032	-1109.00212	1709.98124	-578.95225	-1051.40275	1649.35666	-427.63157	-1048.52139	1654.39380	-743.82814	-1007.04794	1609.94648	-566.11031	-1006.27460	1609.39405	-606.10671	-1080.60963	1419.04636	-332.45763	-1147.36697	1318.53107	-369.50848	-1116.08832	1341.10168	-305.68653	-1047.73039	1236.94034	-302.20630	-1005.28745	1125.00984	-308.09228	-1040.89007	1112.96832	-285.64869	-1038.33388	1522.89279	-799.49751	-1161.60218	1332.06320	-793.23268	-1137.33606	1342.04473	-851.72115	-1069.83501	1249.39975	-850.85180	-1034.46909	1130.27264	-828.05301	-1062.15661	1115.61253	-849.46916	-1128.53278	1151.44904	-473.94901	-1130.54597	1148.40024	-674.20826	-1124.90876	1147.81343	-480.02056	-1133.30419	1138.73440	-648.35733	
36	0.35000000	-1094.79832	765.71516	-450.17078	-1092.48546	691.80089	-427.72904	-1185.87205	399.84457	-458.32197	-1254.79740	360.96746	-493.16175	-1081.87940	357.70423	-435.02899	-1042.72845	381.03924	-491.84414	-1095.66997	763.78471	-717.21953	-1076.12382	693.50181	-720.87101	-1178.06054	401.32502	-710.00827	-1248.55744	363.32635	-664.21564	-1084.42032	354.72980	-732.70061	-1037.80695	380.16582	-677.20854	-1118.31593	581.35848	-422.38662	-1165.87119	707.01947	-432.51489	-1199.17414	595.96498	-429.30210	-1158.95020	719.35816	-745.21579	-1180.09481	598.63092	-748.04696	-1043.40743	1078.50207	-454.75943	-1029.92617	966.24787	-454.09281	-1067.52882	938.66787	-406.25075	-1127.91929	1068.54588	-379.59740	-1121.72630	951.66103	-396.04655	-1053.75095	1052.35849	-732.45359	-1040.37908	914.38818	-723.16680	-1167.44516	1040.12457	-762.34695	-1145.22235	900.48112	-747.82360	-1055.96949	1217.86106	-451.32344	-1236.66144	1257.55724	-516.79921	-1060.31221	1210.51146	-706.35476	-1242.39166	1251.42632	-626.11332	-1101.61991	1708.29098	-578.75531	-1044.59849	1647.16049	-428.20300	-1042.11948	1652.35410	-743.80789	-1000.97884	1607.17167	-566.25931	-1000.12631	1606.59818	-606.15842	-1078.86124	1418.91255	-330.53874	-1146.50178	1319.04762	-367.41359	-1115.57206	1341.78024	-303.32472	-1047.50051	1237.56356	-300.37267	-1004.92509	1125.73696	-306.75405	-1040.45911	1113.57465	-284.29829	-1035.34798	1521.38669	-800.98809	-1163.20782	1333.17609	-795.42748	-1138.73567	1343.21185	-854.27094	-1071.63526	1250.01842	-852.93999	-1036.26903	1131.17035	-829.18892	-1064.01907	1116.43353	-850.51867	-1130.49004	1150.80824	-473.59845	-1132.84318	1147.67708	-673.85241	-1126.99219	1147.62688	-479.72048	-1135.79354	1138.20969	-647.64150	
37	0.36000000	-1090.14836	764.59898	-450.81451	-1088.50321	690.79968	-428.36916	-1185.52328	400.00535	-458.21952	-1254.71896	361.04844	-493.15556	-1081.78243	357.76848	-435.15031	-1042.62692	380.95522	-492.01472	-1091.61171	762.93260	-718.38088	-1072.39106	692.12160	-721.61551	-1178.24559	400.81070	-709.26963	-1248.55227	363.37574	-664.30994	-1084.65851	354.49869	-732.03030	-1037.89910	380.48597	-677.42162	-1115.58668	580.54100	-422.98403	-1161.34303	706.89308	-432.83509	-1196.33167	596.27982	-429.34814	-1154.81498	719.06868	-746.16507	-1177.18575	598.82121	-749.34336	-1044.67955	1077.95239	-455.41377	-1028.63568	966.14114	-455.56263	-1065.52427	937.97132	-406.62975	-1127.64170	1066.87309	-378.91899	-1119.82042	949.95643	-396.12671	-1054.30974	1052.17893	-732.27457	-1038.51502	914.33003	-723.81216	-1167.73541	1038.20512	-762.13278	-1143.22908	898.95913	-748.38120	-1057.23665	1216.35075	-451.30892	-1237.56065	1257.91045	-516.34351	-1061.97087	1208.84006	-705.97881	-1243.61079	1251.55601	-625.61576	-1093.89162	1706.12122	-578.54894	-1037.20711	1644.78025	-428.76216	-1035.50847	1649.81342	-743.73971	-994.70799	1603.88342	-566.51115	-993.77169	1603.21683	-606.31353	-1076.92228	1418.48390	-328.78988	-1146.03357	1319.36923	-365.05038	-1114.89728	1342.24373	-301.03479	-1047.23758	1237.80710	-298.63199	-1004.67852	1126.19488	-305.52707	-1040.14598	1113.96784	-282.95223	-1032.25661	1519.46494	-802.48007	-1164.56506	1334.02202	-797.59230	-1139.95927	1344.07672	-856.49945	-1073.33189	1250.38432	-854.91269	-1038.11812	1131.74565	-830.58529	-1065.82949	1117.00352	-851.91835	-1132.42647	1150.06169	-473.20220	-1135.13246	1146.74228	-673.44866	-1128.96129	1147.18077	-479.31324	-1138.24329	1137.43173	-646.95744	
